<svg xmlns="http://www.w3.org/2000/svg" width="22" height="22.444" viewBox="0 0 22 22.444">
    <g id="prefix__Google__G__Logo" transform="translate(.05 .018)">
        <path id="prefix__Path_2" d="M282.878 225.38a13.2 13.2 0 0 0-.194-2.28H272.1v4.321h6.061a5.194 5.194 0 0 1-2.243 3.41v2.8h3.616a10.959 10.959 0 0 0 3.344-8.251z" data-name="Path 2" transform="translate(-260.928 -213.918)" style="fill:#4285f4"/>
        <path id="prefix__Path_3" d="M38.928 333.371a10.742 10.742 0 0 0 7.438-2.709l-3.616-2.8a6.806 6.806 0 0 1-10.119-3.562H28.9v2.89a11.223 11.223 0 0 0 10.028 6.181z" data-name="Path 3" transform="translate(-27.756 -310.945)" style="fill:#34a853"/>
        <path id="prefix__Path_4" d="M4.871 157.187a6.721 6.721 0 0 1 0-4.3V150H1.144a11.231 11.231 0 0 0 0 10.077z" data-name="Path 4" transform="translate(0 -143.832)" style="fill:#fbbc04"/>
        <path id="prefix__Path_5" d="M38.928 4.423a6.1 6.1 0 0 1 4.3 1.682l3.2-3.2a10.785 10.785 0 0 0-7.5-2.923A11.22 11.22 0 0 0 28.9 6.167l3.728 2.89a6.712 6.712 0 0 1 6.3-4.634z" data-name="Path 5" transform="translate(-27.756)" style="fill:#ea4335"/>
    </g>
</svg>
